<?xml version="1.0" standalone="no"?>
<!DOCTYPE svg PUBLIC "-//W3C//DTD SVG 20010904//EN"
 "http://www.w3.org/TR/2001/REC-SVG-20010904/DTD/svg10.dtd">
<svg version="1.0" xmlns="http://www.w3.org/2000/svg"
 width="260.000000pt" height="260.000000pt" viewBox="0 0 260.000000 260.000000"
 preserveAspectRatio="xMidYMid meet">
<metadata>
Created by potrace 1.11, written by Peter Selinger 2001-2013
</metadata>
<g transform="translate(0.000000,260.000000) scale(0.100000,-0.100000)"
fill="#000000" stroke="none">
<path d="M0 1300 l0 -1300 1300 0 1300 0 0 1300 0 1300 -1300 0 -1300 0 0
-1300z m309 289 c17 -6 31 -15 31 -20 0 -11 -3 -11 -36 1 -41 16 -83 3 -105
-33 -23 -38 -24 -68 -4 -106 21 -42 63 -56 110 -37 43 18 58 13 29 -9 -22 -17
-97 -20 -125 -5 -70 38 -61 173 14 205 39 17 46 18 86 4z m1744 -29 c22 -25
27 -40 27 -81 0 -43 -5 -55 -29 -80 -24 -24 -38 -29 -76 -29 -38 0 -52 5 -76
29 -53 54 -33 163 35 192 37 15 89 2 119 -31z m-1425 -35 c56 -140 61 -155 51
-155 -5 0 -17 16 -25 35 -14 33 -17 35 -65 35 -48 0 -51 -2 -65 -35 -8 -19
-19 -35 -25 -35 -6 0 -9 4 -7 9 72 186 84 211 97 209 8 -2 26 -30 39 -63z
m283 -10 c23 -41 46 -72 50 -69 5 2 25 36 46 74 21 39 44 70 51 70 9 0 12 -29
12 -110 0 -67 -4 -110 -10 -110 -6 0 -10 38 -10 93 l0 92 -40 -70 c-21 -38
-45 -70 -52 -70 -6 0 -30 32 -53 70 l-40 70 -6 -95 -5 -95 -2 113 c-1 64 2
112 7 112 5 0 29 -34 52 -75z m427 68 l-58 -4 0 -44 0 -45 45 0 c25 0 45 -4
45 -10 0 -5 -20 -10 -45 -10 l-45 0 0 -40 0 -40 55 0 c30 0 55 -4 55 -10 0 -6
-30 -10 -70 -10 l-70 0 0 110 0 110 73 -2 c69 -2 70 -2 15 -5z m358 -18 c19
-29 11 -60 -22 -82 l-24 -16 36 -44 c20 -24 33 -47 29 -51 -7 -7 -84 76 -85
91 0 4 -9 7 -20 7 -17 0 -20 -7 -20 -50 0 -27 -4 -50 -10 -50 -6 0 -10 43 -10
110 l0 110 55 0 c47 0 57 -3 71 -25z m647 -67 l67 -92 0 92 c0 55 4 92 10 92
6 0 10 -43 10 -110 0 -60 -4 -110 -9 -110 -5 0 -40 41 -77 92 l-69 92 -3 -92
c-4 -131 -22 -116 -22 18 0 82 3 110 13 110 6 -1 42 -42 80 -92z m-1872 -338
c12 0 19 7 19 20 0 11 5 20 10 20 6 0 10 -20 10 -45 0 -25 -4 -45 -10 -45 -5
0 -10 9 -10 20 0 29 -37 27 -43 -2 -2 -13 -4 0 -4 27 0 28 2 40 4 28 3 -15 12
-23 24 -23z m169 26 c28 -35 -11 -93 -47 -70 -36 22 -23 84 17 84 10 0 23 -7
30 -14z m102 -11 l12 -26 22 28 23 28 -1 -50 c-1 -30 -3 -39 -5 -21 l-5 28
-15 -22 c-15 -22 -17 -22 -30 -5 -12 18 -13 18 -13 -3 0 -12 -4 -22 -10 -22
-5 0 -10 20 -10 45 0 50 14 59 32 20z m178 15 c0 -5 -9 -10 -20 -10 -25 0 -27
-20 -2 -21 16 -1 16 -2 0 -6 -26 -6 -22 -31 5 -36 16 -3 13 -5 -10 -6 -33 -1
-33 0 -33 44 0 43 1 45 30 45 17 0 30 -4 30 -10z m150 -35 c0 -25 -4 -45 -10
-45 -5 0 -10 20 -10 45 0 25 5 45 10 45 6 0 10 -20 10 -45z m95 15 l20 -30 6
32 c5 28 7 26 7 -17 l1 -50 -29 34 -29 34 -4 -34 c-3 -28 -4 -25 -5 14 -1 26
1 47 6 47 4 0 16 -14 27 -30z m145 20 c0 -5 -8 -10 -17 -10 -15 0 -13 -4 7
-19 20 -16 22 -21 11 -35 -16 -19 -37 -21 -47 -4 -5 7 -2 9 8 5 26 -10 31 6 7
24 -14 10 -20 22 -16 33 7 17 47 23 47 6z m118 -18 c3 -17 -2 -25 -17 -29 -12
-3 -21 -12 -21 -19 0 -8 -4 -14 -10 -14 -5 0 -10 21 -10 46 0 44 1 45 28 42
19 -2 28 -9 30 -26z m117 18 c-3 -5 -13 -10 -21 -10 -20 0 -17 -20 4 -21 16
-1 16 -2 0 -6 -26 -6 -22 -31 5 -36 16 -3 13 -5 -10 -6 -33 -1 -33 0 -33 44 0
44 1 45 31 45 17 0 28 -4 24 -10z m120 0 c4 -6 -5 -10 -19 -10 -21 0 -26 -5
-26 -25 0 -24 9 -30 39 -26 7 2 10 -2 6 -8 -17 -28 -65 -3 -65 34 0 37 48 62
65 35z m125 0 c0 -5 -4 -10 -10 -10 -5 0 -10 -16 -10 -35 0 -19 -4 -35 -10
-35 -5 0 -10 16 -10 35 0 24 -5 35 -15 35 -8 0 -15 5 -15 10 0 6 16 10 35 10
19 0 35 -4 35 -10z m67 -57 c-2 -16 -4 -5 -4 22 0 28 2 40 4 28 2 -13 2 -35 0
-50z m141 55 c27 -27 7 -78 -29 -78 -21 0 -49 26 -49 45 0 35 53 58 78 33z
m122 -14 c0 14 5 26 10 26 6 0 10 -20 10 -45 0 -53 -8 -56 -35 -15 l-20 30 -6
-32 c-5 -28 -7 -26 -7 17 l-1 50 24 -28 25 -28 0 25z"/>
<path d="M1919 1551 c-60 -61 -25 -165 56 -165 81 0 116 104 56 165 -18 17
-40 29 -56 29 -16 0 -38 -12 -56 -29z"/>
<path d="M566 1507 c-9 -23 -16 -46 -16 -50 0 -4 18 -7 40 -7 22 0 40 3 40 7
0 16 -33 93 -40 93 -4 0 -15 -19 -24 -43z"/>
<path d="M1590 1531 c0 -56 5 -59 58 -40 58 20 45 75 -21 86 l-37 6 0 -52z"/>
<path d="M587 1167 c-8 -21 8 -39 29 -35 27 5 25 42 -2 46 -12 2 -24 -3 -27
-11z"/>
<path d="M1390 1175 c0 -8 7 -15 15 -15 8 0 15 4 15 9 0 5 -7 11 -15 15 -9 3
-15 0 -15 -9z"/>
<path d="M1944 1165 c-8 -20 4 -35 27 -35 14 0 19 7 19 25 0 18 -5 25 -20 25
-11 0 -23 -7 -26 -15z"/>
</g>
</svg>
