<?xml version="1.0" encoding="utf-8"?>
<!-- Generator: Adobe Illustrator 15.1.0, SVG Export Plug-In . SVG Version: 6.00 Build 0)  -->
<!DOCTYPE svg PUBLIC "-//W3C//DTD SVG 1.1//EN" "http://www.w3.org/Graphics/SVG/1.1/DTD/svg11.dtd">
<svg version="1.1" id="Layer_1" xmlns="http://www.w3.org/2000/svg" xmlns:xlink="http://www.w3.org/1999/xlink" x="0px" y="0px"
	 width="28.861px" height="49.479px" viewBox="0 0 28.861 49.479" enable-background="new 0 0 28.861 49.479" xml:space="preserve">
<title>mobile-phone</title>
<g>
	<path fill="#FFFFFF" d="M26.799,38.653c0,0.285-0.229,0.519-0.517,0.519H2.576c-0.284,0-0.516-0.23-0.516-0.519V8.762
		c0-0.285,0.23-0.516,0.516-0.516h23.707c0.285,0,0.517,0.229,0.517,0.516v0.433l0.565,0.136c0.517,0.124,1.031,0.268,1.496,0.433
		V6.185c0-3.416-2.77-6.185-6.186-6.185H6.183C2.767,0,0,2.769,0,6.185v37.107c0,3.416,2.768,6.186,6.184,6.186h16.492
		c3.416,0,6.186-2.77,6.186-6.186V8.595H26.8L26.799,38.653L26.799,38.653z M11.853,4.124h5.154c0.283,0,0.514,0.229,0.514,0.516
		s-0.229,0.515-0.514,0.515h-5.154c-0.283,0-0.516-0.229-0.516-0.515S11.57,4.124,11.853,4.124z M16.926,44.446
		c-0.228,0.916-0.939,1.634-1.855,1.855c-1.387,0.322-2.771-0.541-3.092-1.928c-0.09-0.383-0.09-0.781,0-1.164
		c0.228-0.916,0.939-1.629,1.855-1.855c1.385-0.319,2.77,0.543,3.092,1.929C17.013,43.667,17.013,44.063,16.926,44.446z"/>
	<g>
		<path fill="#FFFFFF" d="M10.824,22.346l0.326-4.57c0.021-0.346-0.146-0.675-0.438-0.859c-0.332-0.194-0.688-0.343-1.06-0.439
			c-1.91-0.464-3.84,0.685-4.348,2.582c-0.783,3.093-0.291,6.373,1.369,9.098c1.678,2.786,4.408,4.771,7.574,5.512
			c0.282,0.067,0.569,0.104,0.86,0.104c1.646,0,3.086-1.114,3.494-2.705c0.043-0.194,0.074-0.395,0.096-0.596
			c0.017-0.182,0.017-0.367,0-0.549c-0.028-0.351-0.248-0.654-0.567-0.793l-4.261-1.816h-0.139
			c-0.354-0.094-0.729,0.027-0.963,0.312c0,0-0.225,0.258-0.439,0.524c-0.754-0.588-1.397-1.305-1.901-2.119
			c-0.5-0.807-0.849-1.698-1.023-2.632l0.672-0.146C10.504,23.157,10.812,22.785,10.824,22.346z"/>
		<path fill="#FFFFFF" d="M15.109,17.264l-0.344,1.403c1.539,0.375,2.863,1.352,3.676,2.71c0.81,1.329,1.055,2.924,0.68,4.432
			l1.406,0.344c0.965-3.917-1.436-7.876-5.354-8.84c-0.021-0.005-0.043-0.01-0.062-0.015v-0.034H15.109z"/>
		<path fill="#FFFFFF" d="M22.799,18.667c-1.549-2.548-4.062-4.364-6.967-5.035l-0.334,1.412c2.514,0.593,4.688,2.171,6.026,4.38
			c1.308,2.108,1.711,4.657,1.117,7.065l1.402,0.354C24.748,24.061,24.299,21.113,22.799,18.667z"/>
	</g>
</g>
</svg>
