<svg xmlns="http://www.w3.org/2000/svg" viewBox="0 0 185.54 39.26"><defs><style>.cls-1{fill:#fff;}</style></defs><g id="Layer_2" data-name="Layer 2"><g id="Layer_1-2" data-name="Layer 1"><path class="cls-1" d="M14.37,15.43a.28.28,0,0,0-.13,0l-.12.08a8.47,8.47,0,0,1-1.09.87,6.14,6.14,0,0,1-1.19.63,7.16,7.16,0,0,1-1.4.39,11.27,11.27,0,0,1-1.73.12A7.3,7.3,0,0,1,5.84,17a6.65,6.65,0,0,1-2.3-1.61A7.23,7.23,0,0,1,2,12.83,9.87,9.87,0,0,1,1.47,9.4,9.7,9.7,0,0,1,2,6,7.54,7.54,0,0,1,3.58,3.45,6.83,6.83,0,0,1,6,1.82a7.86,7.86,0,0,1,3-.57,8.58,8.58,0,0,1,1.6.14,8.19,8.19,0,0,1,1.24.33,4.93,4.93,0,0,1,.92.44c.26.16.49.3.67.43l.45.34a.53.53,0,0,0,.3.13.37.37,0,0,0,.32-.15l.39-.58a11.51,11.51,0,0,0-1.22-1A7.33,7.33,0,0,0,12.32.7,7.79,7.79,0,0,0,10.79.27,10,10,0,0,0,9,.12,9.27,9.27,0,0,0,5.39.8a8,8,0,0,0-2.8,1.9A8.5,8.5,0,0,0,.77,5.63,10.54,10.54,0,0,0,.13,9.4a11.05,11.05,0,0,0,.62,3.82A8.56,8.56,0,0,0,2.5,16.15,7.58,7.58,0,0,0,5.18,18a8.84,8.84,0,0,0,3.45.66,11.08,11.08,0,0,0,2.07-.18A8.65,8.65,0,0,0,12.42,18a7.56,7.56,0,0,0,1.45-.82,7.93,7.93,0,0,0,1.23-1.08l-.51-.55A.29.29,0,0,0,14.37,15.43Zm25.08-2.57,2.14,5.27a.58.58,0,0,0,.18.25.39.39,0,0,0,.29.1h1L35.67.33H34.36L27,18.48h1a.52.52,0,0,0,.31-.1.49.49,0,0,0,.18-.25l2.12-5.27ZM34.66,2.73a5.07,5.07,0,0,0,.17-.51c.06-.18.12-.38.18-.58.06.2.12.4.18.58s.12.35.18.5l3.7,9.17H31ZM72.86.37a.43.43,0,0,0-.21.2L65.54,13.18a2.64,2.64,0,0,0-.18.38c-.06.13-.11.27-.16.4a6,6,0,0,0-.34-.77L57.56.57a.43.43,0,0,0-.21-.2.78.78,0,0,0-.29,0h-.89V18.48H57.3V3q0-.34,0-.72L64.58,15a.58.58,0,0,0,.51.33h.21a.56.56,0,0,0,.51-.33L72.93,2.31c0,.24,0,.48,0,.7V18.48h1.15V.33h-.91A.69.69,0,0,0,72.86.37Zm27.63,17H91V9.82H98.9V8.76H91V1.42h9.52V.33H89.65V18.48h10.84Zm16.19-7.12h2.37a1.84,1.84,0,0,1,.77.12,1.13,1.13,0,0,1,.47.39l5.8,7.36a.84.84,0,0,0,.28.26.78.78,0,0,0,.35.08h1.14l-6.23-7.85a1.89,1.89,0,0,0-.55-.51,7.22,7.22,0,0,0,2.14-.55,5.61,5.61,0,0,0,1.62-1.06,4.56,4.56,0,0,0,1-1.51,4.87,4.87,0,0,0,.36-1.9,4.26,4.26,0,0,0-1.55-3.56A7.5,7.5,0,0,0,120,.33h-4.62V18.48h1.3Zm0-8.9H120a6.08,6.08,0,0,1,3.68.94A3.34,3.34,0,0,1,125,5.18a4,4,0,0,1-.35,1.7,3.52,3.52,0,0,1-1,1.3A4.81,4.81,0,0,1,122,9a7.59,7.59,0,0,1-2.16.28h-3.15Zm37.89,1.29A7.78,7.78,0,0,0,151.84.79a9.5,9.5,0,0,0-7,0,8,8,0,0,0-2.72,1.88,8.5,8.5,0,0,0-1.77,2.92,11,11,0,0,0-.63,3.81,11,11,0,0,0,.63,3.81,8.54,8.54,0,0,0,1.77,2.93A7.83,7.83,0,0,0,144.83,18a9.64,9.64,0,0,0,7,0,7.78,7.78,0,0,0,2.73-1.87,8.52,8.52,0,0,0,1.76-2.93A11,11,0,0,0,157,9.4a11,11,0,0,0-.63-3.81A8.62,8.62,0,0,0,154.57,2.66Zm.51,10.16a7.29,7.29,0,0,1-1.48,2.55A6.19,6.19,0,0,1,151.31,17a7.94,7.94,0,0,1-3,.55,7.79,7.79,0,0,1-3-.55,6.31,6.31,0,0,1-2.3-1.61,7.18,7.18,0,0,1-1.5-2.55,10.4,10.4,0,0,1-.53-3.42A10.34,10.34,0,0,1,141.58,6a7.18,7.18,0,0,1,1.5-2.57,6.43,6.43,0,0,1,2.3-1.61,7.6,7.6,0,0,1,3-.56,7.75,7.75,0,0,1,3,.56,6.31,6.31,0,0,1,2.29,1.61A7.29,7.29,0,0,1,155.08,6a10.35,10.35,0,0,1,.52,3.41A10.41,10.41,0,0,1,155.08,12.82ZM184.26.33V15.55c0,.24,0,.49,0,.75L172.59.57a.6.6,0,0,0-.22-.19.7.7,0,0,0-.28,0h-.64V18.48h1.14V3.2c0-.23,0-.47,0-.73l11.76,15.75a.56.56,0,0,0,.48.26h.62V.33ZM33.72,35.61H30.37V32.82h-.85v6.24h.85V36.22h3.35v2.84h.85V32.82h-.85Zm10.77-2a2.88,2.88,0,0,0-1-.66,3.17,3.17,0,0,0-1.25-.24A3.13,3.13,0,0,0,41,33a2.88,2.88,0,0,0-1,.66,2.81,2.81,0,0,0-.62,1,3.7,3.7,0,0,0,0,2.57,2.81,2.81,0,0,0,.62,1,2.72,2.72,0,0,0,1,.65,3.13,3.13,0,0,0,1.25.24,3.17,3.17,0,0,0,1.25-.24,2.72,2.72,0,0,0,1-.65,3,3,0,0,0,.63-1,3.86,3.86,0,0,0,0-2.57A3,3,0,0,0,44.49,33.65ZM44.32,37a2.09,2.09,0,0,1-.45.77,1.78,1.78,0,0,1-.69.49,2.52,2.52,0,0,1-1.82,0,1.89,1.89,0,0,1-.7-.49,2.07,2.07,0,0,1-.44-.77,3.23,3.23,0,0,1-.16-1,3.32,3.32,0,0,1,.16-1,2,2,0,0,1,1.14-1.26,2.67,2.67,0,0,1,1.82,0,2,2,0,0,1,.69.49,2.18,2.18,0,0,1,.45.77,3.33,3.33,0,0,1,.15,1A3.24,3.24,0,0,1,44.32,37Zm11.32-4.12s-.08,0-.12.12l-2.1,3.83a2.4,2.4,0,0,0-.11.23l-.09.23L53.13,37a1.51,1.51,0,0,0-.11-.22L50.87,33a.19.19,0,0,0-.11-.12.42.42,0,0,0-.18,0H50v6.24h.74V34.48a1.41,1.41,0,0,0,0-.2,1.5,1.5,0,0,0,0-.22L52.85,38a.34.34,0,0,0,.31.19h.12a.32.32,0,0,0,.3-.19l2.13-3.9c0,.07,0,.14,0,.21v4.78h.73V32.82h-.62A.4.4,0,0,0,55.64,32.85Zm5.78,6.21h3.84v-.69h-3V36.25h2.42v-.67H62.27V33.51h3v-.69H61.42Zm13.82,0h.85V32.82h-.85Zm10.29-1.82a1.48,1.48,0,0,0,0,.21c0,.07,0,.14,0,.22L82,33a.66.66,0,0,0-.12-.12.37.37,0,0,0-.17,0h-.43v6.24H82V34.43c0-.07,0-.15,0-.22l3.6,4.7a.49.49,0,0,0,.13.12.4.4,0,0,0,.17,0h.42V32.82h-.74Zm8.8-1.17a1.72,1.72,0,0,0-.48-.31,5.2,5.2,0,0,0-.55-.21l-.55-.19a2.9,2.9,0,0,1-.47-.21,1.09,1.09,0,0,1-.34-.29.69.69,0,0,1-.13-.43,1,1,0,0,1,.07-.39.93.93,0,0,1,.22-.3,1,1,0,0,1,.37-.21,1.48,1.48,0,0,1,.49-.08,1.52,1.52,0,0,1,.51.08,1.86,1.86,0,0,1,.37.16,1.91,1.91,0,0,1,.24.17.38.38,0,0,0,.17.07.21.21,0,0,0,.12,0l.08-.1.2-.4a2.1,2.1,0,0,0-.75-.48,2.59,2.59,0,0,0-1-.17,2.1,2.1,0,0,0-.82.15,1.67,1.67,0,0,0-.6.38,1.57,1.57,0,0,0-.37.55,1.59,1.59,0,0,0-.13.64,1.57,1.57,0,0,0,.13.69,1.25,1.25,0,0,0,.33.47,1.72,1.72,0,0,0,.48.31l.55.2.54.18a2.1,2.1,0,0,1,.48.2,1,1,0,0,1,.33.31.74.74,0,0,1,.13.46,1.4,1.4,0,0,1-.08.47,1.12,1.12,0,0,1-.25.35,1.07,1.07,0,0,1-.4.24,1.8,1.8,0,0,1-.54.08,1.59,1.59,0,0,1-.61-.1,2.06,2.06,0,0,1-.42-.21,2,2,0,0,1-.29-.22.4.4,0,0,0-.21-.1.15.15,0,0,0-.11,0,.23.23,0,0,0-.09.08l-.24.4a2.45,2.45,0,0,0,.85.59,2.64,2.64,0,0,0,1.1.22,2.42,2.42,0,0,0,.88-.15,1.87,1.87,0,0,0,.66-.42,1.7,1.7,0,0,0,.4-.62,2,2,0,0,0,.14-.77,1.39,1.39,0,0,0-.13-.65A1.25,1.25,0,0,0,94.33,36.07ZM103,33.35a1.91,1.91,0,0,0-.72-.39,3.51,3.51,0,0,0-1-.14H99.42v6.24h.84V36.73h1a3,3,0,0,0,1-.15,2,2,0,0,0,.73-.4,1.74,1.74,0,0,0,.45-.63,2,2,0,0,0,.15-.79,2.24,2.24,0,0,0-.14-.8A1.65,1.65,0,0,0,103,33.35Zm-.37,1.93a1.07,1.07,0,0,1-.28.41,1.24,1.24,0,0,1-.46.27,1.83,1.83,0,0,1-.64.1h-1V33.49h1a1.6,1.6,0,0,1,1.11.33,1.24,1.24,0,0,1,.37.94A1.46,1.46,0,0,1,102.64,35.28Zm5.48,3.78H112v-.69h-3V36.25h2.42v-.67H109V33.51h3v-.69h-3.83ZM121,37.77a.21.21,0,0,0-.15.07,2.33,2.33,0,0,1-.32.25,2,2,0,0,1-.36.18,1.64,1.64,0,0,1-.41.1,3.58,3.58,0,0,1-.49,0,2.23,2.23,0,0,1-.86-.16,1.91,1.91,0,0,1-.68-.48,2.54,2.54,0,0,1-.46-.77,3.13,3.13,0,0,1-.16-1.05,3,3,0,0,1,.16-1,2.37,2.37,0,0,1,.47-.77,1.89,1.89,0,0,1,.72-.49,2.24,2.24,0,0,1,.91-.17,2.43,2.43,0,0,1,.49,0,1.64,1.64,0,0,1,.37.1,1.46,1.46,0,0,1,.28.13l.21.13.15.1a.19.19,0,0,0,.11,0l.12,0,.07-.08.27-.38a2.85,2.85,0,0,0-2.07-.8,3.3,3.3,0,0,0-1.27.24,2.76,2.76,0,0,0-1,.65,2.86,2.86,0,0,0-.64,1,3.37,3.37,0,0,0-.23,1.29,3.85,3.85,0,0,0,.21,1.3,2.92,2.92,0,0,0,.6,1,2.79,2.79,0,0,0,.93.65,3.19,3.19,0,0,0,1.22.23,3.11,3.11,0,0,0,1.32-.25,2.51,2.51,0,0,0,.92-.69l-.33-.36A.16.16,0,0,0,121,37.77Zm4.4-4.24h2v5.53h.84V33.53h2v-.71h-4.87Zm9.38,5.53h.85V32.82h-.85Zm10.92-5.41a2.88,2.88,0,0,0-1-.66,3.2,3.2,0,0,0-1.25-.24,3.13,3.13,0,0,0-1.25.24,2.88,2.88,0,0,0-1,.66,3,3,0,0,0-.63,1,3.86,3.86,0,0,0,0,2.57,3,3,0,0,0,.63,1,2.72,2.72,0,0,0,1,.65,3.13,3.13,0,0,0,1.25.24,3.2,3.2,0,0,0,1.25-.24,2.72,2.72,0,0,0,1-.65,2.81,2.81,0,0,0,.62-1,3.7,3.7,0,0,0,0-2.57A2.81,2.81,0,0,0,145.72,33.65ZM145.55,37a2.24,2.24,0,0,1-.45.77,1.78,1.78,0,0,1-.69.49,2.42,2.42,0,0,1-.91.17,2.38,2.38,0,0,1-.91-.17,1.82,1.82,0,0,1-.7-.49,2.07,2.07,0,0,1-.44-.77,3,3,0,0,1-.16-1,3.05,3.05,0,0,1,.16-1,2.16,2.16,0,0,1,.44-.77,2.06,2.06,0,0,1,.7-.49,2.38,2.38,0,0,1,.91-.16,2.42,2.42,0,0,1,.91.16,2,2,0,0,1,.69.49,2.34,2.34,0,0,1,.45.77,3.33,3.33,0,0,1,.15,1A3.24,3.24,0,0,1,145.55,37Zm9.94.27c0,.07,0,.14,0,.21a1.8,1.8,0,0,0,0,.22L151.91,33a.34.34,0,0,0-.12-.12.37.37,0,0,0-.17,0h-.43v6.24h.74V34.62c0-.06,0-.12,0-.19s0-.15,0-.22l3.6,4.7a.71.71,0,0,0,.13.12.43.43,0,0,0,.17,0h.42V32.82h-.74Z"/><path class="cls-1" d="M119.23,39.26A3.27,3.27,0,0,1,118,39a2.89,2.89,0,0,1-1-.68,3.16,3.16,0,0,1-.63-1,4.08,4.08,0,0,1-.22-1.33,3.59,3.59,0,0,1,.24-1.34,3,3,0,0,1,.67-1,2.83,2.83,0,0,1,1-.69,3.47,3.47,0,0,1,1.31-.24,3.12,3.12,0,0,1,1.24.22,3.32,3.32,0,0,1,.92.6l.08.08-.34.48a.43.43,0,0,1-.1.09.33.33,0,0,1-.38,0l-.13-.1-.21-.13a1.26,1.26,0,0,0-.26-.12,2.14,2.14,0,0,0-.35-.1,2.29,2.29,0,0,0-.47,0,2.25,2.25,0,0,0-.87.16,2.06,2.06,0,0,0-.67.46,2.41,2.41,0,0,0-.44.73,3.14,3.14,0,0,0,0,2,2.17,2.17,0,0,0,.43.73,1.78,1.78,0,0,0,.64.45,2,2,0,0,0,.81.16,3.53,3.53,0,0,0,.48,0,1.64,1.64,0,0,0,.38-.1,1.44,1.44,0,0,0,.33-.16,3.24,3.24,0,0,0,.31-.24.3.3,0,0,1,.44,0l.41.45-.07.08a2.92,2.92,0,0,1-1,.73A3.35,3.35,0,0,1,119.23,39.26Zm.16-6.38a3.23,3.23,0,0,0-1.22.22,2.79,2.79,0,0,0-1.56,1.6,3.52,3.52,0,0,0-.22,1.25,3.6,3.6,0,0,0,.21,1.25,2.88,2.88,0,0,0,.57,1,2.51,2.51,0,0,0,.89.62,3.26,3.26,0,0,0,2.43,0,2.4,2.4,0,0,0,.81-.58l-.25-.28h0a.08.08,0,0,0-.06,0,4.11,4.11,0,0,1-.35.27,1.62,1.62,0,0,1-.37.19,2.83,2.83,0,0,1-.44.11,3.89,3.89,0,0,1-.51,0,2.23,2.23,0,0,1-.9-.18,2,2,0,0,1-.73-.51,2.32,2.32,0,0,1-.48-.81A3.06,3.06,0,0,1,117,36a3,3,0,0,1,.18-1.07,2.19,2.19,0,0,1,1.25-1.34,2.49,2.49,0,0,1,1-.18,2.64,2.64,0,0,1,.51,0,2.49,2.49,0,0,1,.4.11,2.15,2.15,0,0,1,.3.14l.21.14.14.1,0,0h0l0,0,.21-.3a2.72,2.72,0,0,0-.76-.48A3,3,0,0,0,119.39,32.88ZM92.71,39.26A2.84,2.84,0,0,1,91.56,39a2.76,2.76,0,0,1-.89-.63l-.07-.07.3-.48a.34.34,0,0,1,.12-.12.38.38,0,0,1,.47.08l.28.2a2.48,2.48,0,0,0,.4.21,1.53,1.53,0,0,0,.56.09,1.5,1.5,0,0,0,.5-.08,1,1,0,0,0,.35-.21.84.84,0,0,0,.22-.31,1.16,1.16,0,0,0,.08-.42.67.67,0,0,0-.11-.39.84.84,0,0,0-.29-.27,2.45,2.45,0,0,0-.46-.19l-.07,0-.47-.15c-.19-.06-.37-.13-.56-.21a1.91,1.91,0,0,1-.51-.32,1.76,1.76,0,0,1-.37-.51,1.89,1.89,0,0,1-.14-.75,1.8,1.8,0,0,1,.54-1.28,1.9,1.9,0,0,1,.64-.41,2.37,2.37,0,0,1,.87-.15,2.91,2.91,0,0,1,1,.17,2.44,2.44,0,0,1,.79.51l.07.06-.25.49a.58.58,0,0,1-.12.14A.37.37,0,0,1,94,34l-.24-.16a1.34,1.34,0,0,0-.34-.15,1.52,1.52,0,0,0-.92,0,.89.89,0,0,0-.32.18.61.61,0,0,0-.19.26.93.93,0,0,0-.06.34.56.56,0,0,0,.1.35.86.86,0,0,0,.3.26,2.35,2.35,0,0,0,.45.21l.55.18a5.42,5.42,0,0,1,.56.22,1.91,1.91,0,0,1,.51.32h0a1.49,1.49,0,0,1,.51,1.2,2.16,2.16,0,0,1-.15.81,2,2,0,0,1-.43.67,2.11,2.11,0,0,1-.7.45A2.7,2.7,0,0,1,92.71,39.26Zm-1.79-1a2.47,2.47,0,0,0,.74.5,2.56,2.56,0,0,0,1,.21,2.24,2.24,0,0,0,.84-.15,1.68,1.68,0,0,0,.61-.39,1.77,1.77,0,0,0,.38-.58,2.14,2.14,0,0,0,.13-.72,1.34,1.34,0,0,0-.12-.6,1.17,1.17,0,0,0-.31-.41h0a1.83,1.83,0,0,0-.44-.28q-.27-.12-.54-.21l-.55-.19a2.52,2.52,0,0,1-.5-.22,1.19,1.19,0,0,1-.37-.33.8.8,0,0,1-.15-.5,1,1,0,0,1,.08-.43.9.9,0,0,1,.25-.35,1.22,1.22,0,0,1,.4-.24,1.8,1.8,0,0,1,.54-.08,1.84,1.84,0,0,1,.56.08,2.7,2.7,0,0,1,.38.17c.1.07.19.12.26.18a.19.19,0,0,0,.09,0h0a.25.25,0,0,0,0-.07l.16-.3a2.23,2.23,0,0,0-.64-.4,2.63,2.63,0,0,0-.91-.15,2,2,0,0,0-.77.13,1.62,1.62,0,0,0-.91.87,1.52,1.52,0,0,0-.12.59,1.49,1.49,0,0,0,.12.64,1.25,1.25,0,0,0,.31.43,1.83,1.83,0,0,0,.44.28,4.36,4.36,0,0,0,.53.2l.55.18a2.09,2.09,0,0,1,.5.22,1.21,1.21,0,0,1,.38.33,1,1,0,0,1,.15.54,1.19,1.19,0,0,1-.1.51,1.15,1.15,0,0,1-.28.41,1.28,1.28,0,0,1-.44.26,1.72,1.72,0,0,1-.58.09,1.8,1.8,0,0,1-.65-.11,3.14,3.14,0,0,1-.45-.23,2.94,2.94,0,0,1-.3-.22.3.3,0,0,0-.13-.07h0s0,0-.06.05Zm52.58,1a3.38,3.38,0,0,1-1.3-.24,2.84,2.84,0,0,1-1-.69,3,3,0,0,1-.65-1,4,4,0,0,1,0-2.67,3,3,0,0,1,1.66-1.74,3.38,3.38,0,0,1,1.3-.24,3.42,3.42,0,0,1,1.3.24,3.12,3.12,0,0,1,1,.69h0a3.15,3.15,0,0,1,.65,1,4,4,0,0,1,0,2.67,3.15,3.15,0,0,1-.65,1,3,3,0,0,1-1,.68A3.42,3.42,0,0,1,143.5,39.25Zm0-6.37a3.14,3.14,0,0,0-1.21.22,2.74,2.74,0,0,0-.92.63,2.83,2.83,0,0,0-.6,1,3.8,3.8,0,0,0,0,2.49,2.75,2.75,0,0,0,1.52,1.59,3.14,3.14,0,0,0,1.21.22,3.09,3.09,0,0,0,1.2-.22,2.73,2.73,0,0,0,.93-.63,2.85,2.85,0,0,0,.6-1,3.8,3.8,0,0,0,0-2.49,3,3,0,0,0-.6-1h0a2.89,2.89,0,0,0-.93-.63A3.09,3.09,0,0,0,143.5,32.88ZM42.27,39.25A3.42,3.42,0,0,1,41,39a2.84,2.84,0,0,1-1-.69,3,3,0,0,1-.65-1,4,4,0,0,1,0-2.67A3,3,0,0,1,41,32.87a3.64,3.64,0,0,1,2.6,0,3,3,0,0,1,1.66,1.74,4,4,0,0,1,0,2.67,3.15,3.15,0,0,1-.65,1,3,3,0,0,1-1,.68A3.42,3.42,0,0,1,42.27,39.25Zm0-6.37a3.06,3.06,0,0,0-1.2.22,2.89,2.89,0,0,0-.93.63,2.83,2.83,0,0,0-.6,1,3.8,3.8,0,0,0,0,2.49,2.79,2.79,0,0,0,.6,1,2.73,2.73,0,0,0,.93.63,3.06,3.06,0,0,0,1.2.22,3.09,3.09,0,0,0,1.2-.22,2.73,2.73,0,0,0,.93-.63,2.7,2.7,0,0,0,.6-1,3.8,3.8,0,0,0,0-2.49,2.83,2.83,0,0,0-.6-1h0a2.64,2.64,0,0,0-.93-.63A3.09,3.09,0,0,0,42.27,32.88Zm114.09,6.31h-.55a.56.56,0,0,1-.23,0,.47.47,0,0,1-.17-.15l-3.36-4.39v4.59h-1V32.7h.56a.5.5,0,0,1,.23,0,.71.71,0,0,1,.16.15l3.36,4.38V32.7h1Zm-4.61-5.39,3.86,5a.38.38,0,0,0,.09.09l.11,0h.3V33h-.49v4.49c0,.07,0,.14,0,.21l.05.46L151.81,33a.54.54,0,0,0-.08-.08h-.42v6h.49V34.43c0-.07,0-.14,0-.21Zm-16,5.39h-1.09V32.7h1.09Zm-.84-.25h.59V33h-.59Zm-6.53.25h-1.09V33.66h-2v-1h5.13v1h-2Zm-.84-.25h.59V33.41h2V33h-4.63v.46h2Zm-15.49.25H108V32.7h4.08v.94h-3v1.82h2.42v.91h-2.42v1.88h3Zm-3.83-.25h3.58V38.5h-3V36.12h2.42v-.41h-2.42V33.39h3V33h-3.58Zm-7.85.25H99.3V32.7h2a3.8,3.8,0,0,1,1.07.14,2.14,2.14,0,0,1,.76.42h0a1.65,1.65,0,0,1,.46.65,2.34,2.34,0,0,1,.15.85,2.1,2.1,0,0,1-.16.84,1.88,1.88,0,0,1-.48.67,2.16,2.16,0,0,1-.76.43,3.35,3.35,0,0,1-1,.15h-.87Zm-.84-.25h.59V36.6h1.12a2.85,2.85,0,0,0,1-.14,1.94,1.94,0,0,0,.68-.38,1.5,1.5,0,0,0,.41-.58,1.78,1.78,0,0,0,.14-.74,2,2,0,0,0-.13-.75,1.49,1.49,0,0,0-.39-.57h0a1.91,1.91,0,0,0-.68-.36,3.26,3.26,0,0,0-1-.13H99.55Zm-13.15.25h-.55a.52.52,0,0,1-.23,0,.47.47,0,0,1-.17-.15L82.09,34.6v4.59h-1V32.7h.56a.43.43,0,0,1,.22,0,.57.57,0,0,1,.17.15l3.36,4.38V32.7h1ZM81.79,33.8l3.86,5a.38.38,0,0,0,.09.09l.11,0h.3V33h-.49v4.49c0,.07,0,.14,0,.21l0,.45L81.85,33a.54.54,0,0,0-.08-.08h-.42v6h.49V34.62a1.28,1.28,0,0,0,0-.19,1.48,1.48,0,0,0,0-.21Zm-5.58,5.39H75.12V32.7h1.09Zm-.84-.25H76V33h-.59Zm-10,.25H61.3V32.7h4.08v.94h-3v1.82h2.42v.91H62.39v1.88h3Zm-3.83-.25h3.58V38.5h-3V36.12h2.42v-.41H62.14V33.39h3V33H61.55Zm-5,.25h-1v-4.6L53.69,38a.46.46,0,0,1-.41.26h-.12a.47.47,0,0,1-.42-.26l-1.92-3.45v4.61h-1V32.7h.74a.69.69,0,0,1,.22,0,.31.31,0,0,1,.18.18l2.15,3.83.09.18a1.51,1.51,0,0,1,.09-.18l2.1-3.83a.36.36,0,0,1,.19-.18.58.58,0,0,1,.21,0h.75Zm-.74-.25h.49V33h-.63s0,0,0,.07l-2.1,3.83-.11.22-.09.22-.11.32-.12-.32L53,37.07a1.24,1.24,0,0,0-.1-.2L50.76,33c0-.06,0-.07,0-.07h-.62v6h.48V34.28c0-.07,0-.14,0-.21l-.07-.62L53,37.91a.21.21,0,0,0,.2.13h.12a.2.2,0,0,0,.19-.13l2.41-4.42,0,.59a1.48,1.48,0,0,0,0,.21,1.21,1.21,0,0,0,0,.19Zm-21.13.25H33.6V36.35H30.49v2.84H29.4V32.7h1.09v2.78H33.6V32.7h1.09Zm-.84-.25h.59V33h-.59v2.78H30.24V33h-.59v6h.59V36.1h3.61Zm109.65-.42a2.49,2.49,0,0,1-1-.18,2,2,0,0,1-.74-.51,2.4,2.4,0,0,1-.47-.81,3.69,3.69,0,0,1,0-2.15,2.3,2.3,0,0,1,.47-.81,2,2,0,0,1,.74-.52,2.65,2.65,0,0,1,1.92,0,1.91,1.91,0,0,1,.73.52,2.16,2.16,0,0,1,.47.81,3.31,3.31,0,0,1,.17,1.08,3.18,3.18,0,0,1-.17,1.06h0a2.24,2.24,0,0,1-.47.81,2.09,2.09,0,0,1-.73.51A2.49,2.49,0,0,1,143.5,38.52Zm0-4.91a2.13,2.13,0,0,0-.86.16,1.93,1.93,0,0,0-.66.45,2.18,2.18,0,0,0-.42.73,3.4,3.4,0,0,0-.14,1,3.31,3.31,0,0,0,.14,1,2.26,2.26,0,0,0,.42.73,1.69,1.69,0,0,0,.66.45,2.43,2.43,0,0,0,1.72,0,1.73,1.73,0,0,0,.65-.45,2,2,0,0,0,.42-.73,3,3,0,0,0,.15-1,3.09,3.09,0,0,0-.15-1,2.18,2.18,0,0,0-.42-.73,2,2,0,0,0-.65-.45A2.2,2.2,0,0,0,143.5,33.61ZM42.27,38.52a2.49,2.49,0,0,1-1-.18,2.09,2.09,0,0,1-.74-.51A2.4,2.4,0,0,1,40.1,37a3.69,3.69,0,0,1,0-2.15,2.3,2.3,0,0,1,.47-.81,2,2,0,0,1,.74-.52,2.65,2.65,0,0,1,1.92,0,2,2,0,0,1,.74.52,2.3,2.3,0,0,1,.47.81,3.69,3.69,0,0,1,0,2.15h0a2.4,2.4,0,0,1-.47.81,2,2,0,0,1-.74.51A2.49,2.49,0,0,1,42.27,38.52Zm0-4.91a2.13,2.13,0,0,0-.86.16,1.89,1.89,0,0,0-.65.45,2.18,2.18,0,0,0-.42.73,3.09,3.09,0,0,0-.15,1,3,3,0,0,0,.15,1,2.09,2.09,0,0,0,.42.73,1.73,1.73,0,0,0,.65.45,2.43,2.43,0,0,0,1.72,0,1.65,1.65,0,0,0,.65-.45,2,2,0,0,0,.42-.73h0a3,3,0,0,0,.15-1,3.09,3.09,0,0,0-.15-1,2.18,2.18,0,0,0-.42-.73,1.8,1.8,0,0,0-.65-.45A2.13,2.13,0,0,0,42.27,33.61Zm59,2.57h-1.12V33.36h1.12a1.71,1.71,0,0,1,1.19.37,1.33,1.33,0,0,1,.41,1,1.56,1.56,0,0,1-.1.57h0a1.23,1.23,0,0,1-.32.46,1.43,1.43,0,0,1-.5.29A2.07,2.07,0,0,1,101.26,36.18Zm-.87-.25h.87a1.8,1.8,0,0,0,.6-.09,1.11,1.11,0,0,0,.41-.24.81.81,0,0,0,.25-.36h0a1.28,1.28,0,0,0,.09-.48,1.06,1.06,0,0,0-.32-.84,1.51,1.51,0,0,0-1-.31h-.87ZM8.63,18.81a9.09,9.09,0,0,1-3.5-.67,7.84,7.84,0,0,1-2.72-1.91,8.71,8.71,0,0,1-1.78-3A11.24,11.24,0,0,1,0,9.4,10.86,10.86,0,0,1,.65,5.58a8.94,8.94,0,0,1,1.85-3A8.27,8.27,0,0,1,5.34.68,9.57,9.57,0,0,1,9,0a10.23,10.23,0,0,1,1.82.15,8.3,8.3,0,0,1,1.56.43,6.92,6.92,0,0,1,1.35.7,9.25,9.25,0,0,1,1.25,1l.08.07L14.59,3a.49.49,0,0,1-.42.21A.68.68,0,0,1,13.8,3l-.45-.34-.66-.43a5.56,5.56,0,0,0-.91-.42,7.89,7.89,0,0,0-1.22-.33A8.3,8.3,0,0,0,9,1.38a7.88,7.88,0,0,0-3,.56,6.65,6.65,0,0,0-2.33,1.6A7.34,7.34,0,0,0,2.14,6.06,9.75,9.75,0,0,0,1.59,9.4a9.92,9.92,0,0,0,.55,3.39,7.23,7.23,0,0,0,1.49,2.52,6.44,6.44,0,0,0,2.25,1.57,7.18,7.18,0,0,0,2.83.55,9.75,9.75,0,0,0,1.71-.13,6.86,6.86,0,0,0,1.37-.37A6.51,6.51,0,0,0,13,16.31,8.23,8.23,0,0,0,14,15.45a.56.56,0,0,1,.15-.1.43.43,0,0,1,.5.08l.59.64-.08.08A8.07,8.07,0,0,1,14,17.25a7.66,7.66,0,0,1-1.48.84,9.69,9.69,0,0,1-1.75.53A11.27,11.27,0,0,1,8.63,18.81ZM9,.25A9.24,9.24,0,0,0,5.44.91,7.94,7.94,0,0,0,2.68,2.78,8.44,8.44,0,0,0,.89,5.67,10.36,10.36,0,0,0,.25,9.4a11.06,11.06,0,0,0,.62,3.78,8.53,8.53,0,0,0,1.72,2.88,7.47,7.47,0,0,0,2.64,1.85,8.77,8.77,0,0,0,3.4.65,9.9,9.9,0,0,0,2-.19,8.26,8.26,0,0,0,1.7-.51,7.92,7.92,0,0,0,1.43-.81,8.72,8.72,0,0,0,1.13-1l-.43-.47a.19.19,0,0,0-.2,0l-.11.07a8.76,8.76,0,0,1-1.09.88,7,7,0,0,1-1.21.64,7.67,7.67,0,0,1-1.43.39,10.24,10.24,0,0,1-1.75.13,7.38,7.38,0,0,1-2.92-.57,6.76,6.76,0,0,1-2.34-1.63,7.56,7.56,0,0,1-1.55-2.6A10.2,10.2,0,0,1,1.34,9.4,9.79,9.79,0,0,1,1.91,6a7.41,7.41,0,0,1,1.58-2.6A6.8,6.8,0,0,1,5.91,1.71,7.93,7.93,0,0,1,9,1.13a8,8,0,0,1,1.62.14,8.48,8.48,0,0,1,1.26.33,6,6,0,0,1,1,.45c.26.16.49.31.67.44l.46.34a.42.42,0,0,0,.22.11.23.23,0,0,0,.21-.1l.34-.49a10.89,10.89,0,0,0-1.13-.86A6.86,6.86,0,0,0,12.27.81,7.67,7.67,0,0,0,10.77.4,9.85,9.85,0,0,0,9,.25ZM148.33,18.8a9,9,0,0,1-3.54-.68,7.88,7.88,0,0,1-2.77-1.9,8.65,8.65,0,0,1-1.8-3,11.24,11.24,0,0,1-.64-3.86,11.22,11.22,0,0,1,.64-3.85,8.65,8.65,0,0,1,1.8-3A8.09,8.09,0,0,1,144.78.68,9.09,9.09,0,0,1,148.33,0a9.33,9.33,0,0,1,3.56.67,8,8,0,0,1,2.77,1.91h0a8.77,8.77,0,0,1,1.79,3,11.23,11.23,0,0,1,.63,3.85,11.24,11.24,0,0,1-.63,3.86,8.63,8.63,0,0,1-1.79,3,7.88,7.88,0,0,1-2.77,1.9A9.14,9.14,0,0,1,148.33,18.8Zm0-18.55a8.8,8.8,0,0,0-3.45.66,7.62,7.62,0,0,0-2.68,1.85,8.41,8.41,0,0,0-1.74,2.88,10.71,10.71,0,0,0-.63,3.76,10.73,10.73,0,0,0,.63,3.77,8.41,8.41,0,0,0,1.74,2.88,7.73,7.73,0,0,0,2.68,1.84,9.37,9.37,0,0,0,6.91,0,7.77,7.77,0,0,0,2.69-1.84,8.39,8.39,0,0,0,1.73-2.88,10.73,10.73,0,0,0,.62-3.77,10.67,10.67,0,0,0-.62-3.76,8.43,8.43,0,0,0-1.73-2.89A7.66,7.66,0,0,0,151.79.9,9,9,0,0,0,148.33.25ZM185.54,18.6h-.75a.66.66,0,0,1-.58-.31L172.7,2.89c0,.11,0,.21,0,.31V18.6h-1.39V.21h.77a.79.79,0,0,1,.33.05.73.73,0,0,1,.27.24l11.46,15.38c0-.11,0-.22,0-.33V.21h1.4ZM172.38,2l.27.36,11.76,15.75a.43.43,0,0,0,.38.2h.5V.46h-.9V15.55a6.46,6.46,0,0,0,0,.74l0,.44-.27-.36L172.49.65a.43.43,0,0,0-.17-.16.56.56,0,0,0-.23,0h-.52V18.35h.89V3.2a6,6,0,0,0,0-.72ZM128.12,18.6h-1.4a.91.91,0,0,1-.41-.09,1.07,1.07,0,0,1-.32-.29l-5.8-7.36a1.16,1.16,0,0,0-.42-.36,1.8,1.8,0,0,0-.72-.11h-2.24V18.6h-1.55V.21H120a7.73,7.73,0,0,1,4.76,1.23,4.41,4.41,0,0,1,1.59,3.66,5,5,0,0,1-.37,2,4.68,4.68,0,0,1-1,1.55,5.9,5.9,0,0,1-1.66,1.09,7.46,7.46,0,0,1-1.86.51,2.72,2.72,0,0,1,.32.35Zm-11.56-8.46h2.49a2.17,2.17,0,0,1,.83.13,1.47,1.47,0,0,1,.51.44l5.79,7.36a1,1,0,0,0,.25.22.65.65,0,0,0,.29.06h.88l-6.06-7.64a2,2,0,0,0-.52-.49l-.31-.19.36,0a7,7,0,0,0,2.1-.53,5.36,5.36,0,0,0,1.58-1,4.36,4.36,0,0,0,1-1.47,4.84,4.84,0,0,0,.35-1.85,4.13,4.13,0,0,0-1.5-3.46A7.4,7.4,0,0,0,120,.46h-4.49V18.35h1ZM100.62,18.6H89.52V.21h11.1V1.55H91.09V8.63H99V10H91.09v7.31h9.53Zm-10.85-.25h10.6v-.84H90.84V9.7h7.93V8.88H90.84V1.3h9.53V.46H89.77Zm-15.6.25h-1.4V2.85l-6.85,12.2a.69.69,0,0,1-.62.4h-.21a.7.7,0,0,1-.62-.4l-7-12.23V18.6H56V.21h1a1,1,0,0,1,.33,0,.61.61,0,0,1,.28.26L65,13.13c.08.16.16.32.23.48l0-.1c.06-.13.12-.27.19-.39L72.54.51a.65.65,0,0,1,.27-.26h0a1,1,0,0,1,.33,0h1ZM73,18.35h.9V.46h-.78a.59.59,0,0,0-.24,0h0s-.07,0-.14.15l-7.11,12.6a2.53,2.53,0,0,0-.18.37c0,.13-.11.26-.16.4l-.12.32L65.08,14a4.6,4.6,0,0,0-.33-.75L57.45.64a.32.32,0,0,0-.14-.15.81.81,0,0,0-.25,0h-.77V18.35h.89V3a5.58,5.58,0,0,0,0-.7l-.06-.59,7.61,13.21a.46.46,0,0,0,.4.27h.21a.45.45,0,0,0,.4-.27L73.12,1.72l-.06.6A5.53,5.53,0,0,0,73,3Zm-29.76.25h-1.2a.57.57,0,0,1-.37-.12.73.73,0,0,1-.22-.3L39.37,13H30.65l-2.09,5.19a.68.68,0,0,1-.22.29.59.59,0,0,1-.39.13H26.77L34.28.21h1.47ZM30.48,12.74h9.06l2.16,5.34a.66.66,0,0,0,.15.21.33.33,0,0,0,.21.06h.82L35.58.46H34.45L27.14,18.35H28a.35.35,0,0,0,.23-.07.41.41,0,0,0,.14-.19Zm117.85,4.91a7.86,7.86,0,0,1-3-.56A6.63,6.63,0,0,1,143,15.46a7.5,7.5,0,0,1-1.52-2.6,10.38,10.38,0,0,1-.54-3.46,10.38,10.38,0,0,1,.54-3.46A7.41,7.41,0,0,1,143,3.34a6.66,6.66,0,0,1,2.35-1.64,8.23,8.23,0,0,1,6,0,6.25,6.25,0,0,1,2.34,1.64,7.48,7.48,0,0,1,1.51,2.6,10.69,10.69,0,0,1,.53,3.46,10.65,10.65,0,0,1-.53,3.46h0a7.58,7.58,0,0,1-1.51,2.6,6.34,6.34,0,0,1-2.34,1.63A7.92,7.92,0,0,1,148.33,17.65Zm0-16.27a7.35,7.35,0,0,0-2.9.55,6.29,6.29,0,0,0-2.26,1.58A7,7,0,0,0,141.7,6a10.1,10.1,0,0,0-.53,3.37,10.06,10.06,0,0,0,.53,3.37,7,7,0,0,0,1.47,2.52,6.39,6.39,0,0,0,2.26,1.57,7.53,7.53,0,0,0,2.9.54,7.68,7.68,0,0,0,2.93-.54,6.14,6.14,0,0,0,2.25-1.57A7.16,7.16,0,0,0,155,12.77a10.32,10.32,0,0,0,.52-3.37A10.37,10.37,0,0,0,155,6a7.3,7.3,0,0,0-1.45-2.53,6.26,6.26,0,0,0-2.25-1.57A7.5,7.5,0,0,0,148.33,1.38ZM39.25,12H30.77l3.77-9.33c.06-.15.12-.32.18-.5s.11-.37.17-.58L35,1.19l.12.41c.06.21.12.4.18.58s.12.35.18.49Zm-8.11-.25h7.74l-3.62-9c-.06-.14-.13-.31-.19-.5L35,2.07,35,2.26q-.09.29-.18.51h0Zm88.69-2.34h-3.27V1.24H120a6.31,6.31,0,0,1,3.75,1,3.47,3.47,0,0,1,1.32,3,4.16,4.16,0,0,1-.36,1.76,3.71,3.71,0,0,1-1,1.34,5,5,0,0,1-1.66.85A7.74,7.74,0,0,1,119.83,9.42Zm-3-.25h3A7.61,7.61,0,0,0,122,8.89a4.57,4.57,0,0,0,1.57-.81,3.39,3.39,0,0,0,1-1.25,4,4,0,0,0,.33-1.65,3.24,3.24,0,0,0-1.21-2.77A6,6,0,0,0,120,1.49h-3.19Z"/></g></g></svg>