<svg xmlns="http://www.w3.org/2000/svg" viewBox="0 0 185.29 39.29"><defs><style>.cls-1{fill:#fff;}</style></defs><g id="Layer_2" data-name="Layer 2"><g id="Layer_1-2" data-name="Layer 1"><path class="cls-1" d="M14.25,15.3a.32.32,0,0,0-.14,0l-.12.09a9.44,9.44,0,0,1-1.09.87,5.86,5.86,0,0,1-1.19.63,6.37,6.37,0,0,1-1.4.38,9.92,9.92,0,0,1-1.73.13,7.34,7.34,0,0,1-2.87-.56,6.58,6.58,0,0,1-2.3-1.6,7.63,7.63,0,0,1-1.52-2.56,10.17,10.17,0,0,1-.55-3.44A9.74,9.74,0,0,1,1.9,5.89,7.47,7.47,0,0,1,3.45,3.33,6.78,6.78,0,0,1,5.83,1.7a7.86,7.86,0,0,1,3-.57,8.56,8.56,0,0,1,1.6.13,7.12,7.12,0,0,1,1.24.34,5.05,5.05,0,0,1,.93.43c.26.16.48.31.66.44l.46.33a.57.57,0,0,0,.29.14.34.34,0,0,0,.32-.16l.4-.57a9.66,9.66,0,0,0-1.23-.95A6.53,6.53,0,0,0,12.19.57,8.67,8.67,0,0,0,10.67.15,10.11,10.11,0,0,0,8.86,0a9.34,9.34,0,0,0-3.6.67,8.27,8.27,0,0,0-2.8,1.9A8.57,8.57,0,0,0,.65,5.5,10.62,10.62,0,0,0,0,9.27a11,11,0,0,0,.63,3.82A8.45,8.45,0,0,0,2.37,16,7.64,7.64,0,0,0,5.06,17.9a8.75,8.75,0,0,0,3.44.66,10.2,10.2,0,0,0,2.07-.19,8.75,8.75,0,0,0,1.73-.52A8.22,8.22,0,0,0,13.75,17,9.78,9.78,0,0,0,15,15.94l-.52-.55A.29.29,0,0,0,14.25,15.3Zm25.08-2.56L41.46,18a.64.64,0,0,0,.18.25.49.49,0,0,0,.3.09h1L35.54.21h-1.3L26.83,18.35h1a.48.48,0,0,0,.31-.1.69.69,0,0,0,.18-.24l2.12-5.27ZM34.53,2.6c.06-.15.12-.32.18-.5s.12-.38.18-.59c.06.21.12.4.18.59s.12.35.18.49l3.69,9.17H30.83ZM72.73.24a.51.51,0,0,0-.2.21L65.42,13.06c-.07.12-.13.24-.19.37s-.11.27-.16.41a4.46,4.46,0,0,0-.33-.77L57.44.45a.48.48,0,0,0-.22-.21,1,1,0,0,0-.28,0H56V18.35h1.14V2.89a5.9,5.9,0,0,0,0-.72l7.32,12.69a.56.56,0,0,0,.51.34h.2a.54.54,0,0,0,.51-.34L72.81,2.18a5.85,5.85,0,0,0,0,.71V18.35h1.15V.21H73A1,1,0,0,0,72.73.24Zm27.64,17H90.84V9.7h7.93V8.63H90.84V1.3h9.53V.21H89.52V18.35h10.85Zm16.19-7.12h2.37a1.87,1.87,0,0,1,.77.12,1.32,1.32,0,0,1,.47.4L126,18a1,1,0,0,0,.29.26.75.75,0,0,0,.35.07h1.14l-6.23-7.85A2.2,2.2,0,0,0,121,10a7.38,7.38,0,0,0,2.14-.54,5.45,5.45,0,0,0,1.61-1.07,4.36,4.36,0,0,0,1-1.51A4.82,4.82,0,0,0,126.1,5a4.25,4.25,0,0,0-1.55-3.56A7.5,7.5,0,0,0,119.87.21h-4.61V18.35h1.3Zm0-8.9h3.31a6.2,6.2,0,0,1,3.69.94,3.34,3.34,0,0,1,1.26,2.87,4.08,4.08,0,0,1-.34,1.71,3.52,3.52,0,0,1-1,1.29,4.54,4.54,0,0,1-1.61.83,7.46,7.46,0,0,1-2.15.29h-3.15Zm37.88,1.3A7.85,7.85,0,0,0,151.72.66,9.08,9.08,0,0,0,148.2,0a8.83,8.83,0,0,0-3.49.67A7.8,7.8,0,0,0,142,2.55a8.72,8.72,0,0,0-1.77,2.92,10.94,10.94,0,0,0-.63,3.8,11,11,0,0,0,.63,3.82A8.82,8.82,0,0,0,142,16a7.78,7.78,0,0,0,2.73,1.87,9.5,9.5,0,0,0,7,0A7.83,7.83,0,0,0,154.44,16a8.5,8.5,0,0,0,1.77-2.92,11.25,11.25,0,0,0,.62-3.82,11.18,11.18,0,0,0-.62-3.8A8.54,8.54,0,0,0,154.44,2.54ZM155,12.69a7.38,7.38,0,0,1-1.47,2.56,6.32,6.32,0,0,1-2.3,1.6,7.75,7.75,0,0,1-3,.55,7.64,7.64,0,0,1-2.95-.55,6.4,6.4,0,0,1-2.3-1.6,7.43,7.43,0,0,1-1.5-2.56,10.32,10.32,0,0,1-.53-3.42,10.39,10.39,0,0,1,.53-3.41A7.43,7.43,0,0,1,143,3.3a6.43,6.43,0,0,1,2.3-1.61,7.46,7.46,0,0,1,2.95-.56,7.57,7.57,0,0,1,3,.56,6.34,6.34,0,0,1,2.3,1.61A7.38,7.38,0,0,1,155,5.86a10.39,10.39,0,0,1,.53,3.41A10.32,10.32,0,0,1,155,12.69ZM184.14.21V15.43a6.23,6.23,0,0,0,0,.74L172.46.45a.65.65,0,0,0-.22-.2.69.69,0,0,0-.28,0h-.64V18.35h1.14V3.08a6.18,6.18,0,0,0,0-.73L184.19,18.1a.55.55,0,0,0,.47.25h.63V.21ZM33.6,35.77H30.24V33H29.4v6.23h.84V36.39H33.6v2.83h.84V33H33.6Zm10.77-2a3,3,0,0,0-1-.66,3.54,3.54,0,0,0-2.51,0,2.84,2.84,0,0,0-1,.66,3,3,0,0,0-.63,1,3.86,3.86,0,0,0,0,2.57,3,3,0,0,0,.63,1,2.84,2.84,0,0,0,1,.66,3.54,3.54,0,0,0,2.51,0A2.81,2.81,0,0,0,45,37.39a3.86,3.86,0,0,0,0-2.57A3,3,0,0,0,44.37,33.81Zm-.18,3.33a2.16,2.16,0,0,1-.44.77,1.87,1.87,0,0,1-.69.48,2.47,2.47,0,0,1-.92.17,2.37,2.37,0,0,1-.9-.17,1.83,1.83,0,0,1-.7-.48,2.34,2.34,0,0,1-.45-.77,3.65,3.65,0,0,1,0-2.07,2.34,2.34,0,0,1,.45-.77,1.83,1.83,0,0,1,.7-.48,2.19,2.19,0,0,1,.9-.17,2.29,2.29,0,0,1,.92.17,1.87,1.87,0,0,1,.69.48,2.16,2.16,0,0,1,.44.77,3.43,3.43,0,0,1,0,2.07ZM55.51,33a.19.19,0,0,0-.11.12L53.29,37l-.11.23-.09.23L53,37.19a1.47,1.47,0,0,0-.1-.22l-2.15-3.84q-.06-.1-.12-.12a.42.42,0,0,0-.17,0h-.62v6.23h.73V34.44c0-.07,0-.15,0-.22l2.18,3.91a.33.33,0,0,0,.3.2h.12a.36.36,0,0,0,.31-.2l2.13-3.9a1.48,1.48,0,0,0,0,.21,1.41,1.41,0,0,0,0,.2v4.58h.74V33h-.62A.44.44,0,0,0,55.51,33Zm5.79,6.21h3.83v-.68h-3V36.41h2.42v-.66H62.14V33.67h3V33H61.3Zm13.82,0H76V33h-.84ZM85.41,37.4v.21a1.64,1.64,0,0,0,0,.22l-3.6-4.7A.46.46,0,0,0,81.7,33a.34.34,0,0,0-.16,0H81.1v6.23h.74V34.78a1.28,1.28,0,0,0,0-.19,1.7,1.7,0,0,0,0-.22l3.6,4.7a.36.36,0,0,0,.13.12.43.43,0,0,0,.17,0h.43V33h-.74Zm8.79-1.17a2,2,0,0,0-.48-.3,5.09,5.09,0,0,0-.54-.22l-.55-.18a2.12,2.12,0,0,1-.48-.22,1.07,1.07,0,0,1-.34-.29.73.73,0,0,1-.13-.43.92.92,0,0,1,.08-.38A.84.84,0,0,1,92,33.9a1,1,0,0,1,.36-.21,1.55,1.55,0,0,1,.5-.07,1.53,1.53,0,0,1,.51.07,2,2,0,0,1,.36.16L94,34a.27.27,0,0,0,.17.07.18.18,0,0,0,.11,0,.27.27,0,0,0,.08-.1l.21-.4a2.29,2.29,0,0,0-.75-.48,2.67,2.67,0,0,0-1-.16,2.16,2.16,0,0,0-.83.14,1.76,1.76,0,0,0-.6.38A1.72,1.72,0,0,0,91,34a1.79,1.79,0,0,0,0,1.34,1.45,1.45,0,0,0,.34.46,1.82,1.82,0,0,0,.47.31,3.62,3.62,0,0,0,.55.2l.55.18a2,2,0,0,1,.47.21,1.1,1.1,0,0,1,.34.3.81.81,0,0,1,.13.46,1.19,1.19,0,0,1-.09.47,1,1,0,0,1-.25.36,1.2,1.2,0,0,1-.4.23,1.69,1.69,0,0,1-.53.08,1.59,1.59,0,0,1-.61-.1,1.91,1.91,0,0,1-.43-.21l-.29-.22a.37.37,0,0,0-.21-.09A.23.23,0,0,0,91,38l-.08.08-.25.4a2.55,2.55,0,0,0,.85.59,2.64,2.64,0,0,0,1.1.22,2.48,2.48,0,0,0,.89-.15,1.82,1.82,0,0,0,.65-.42,1.64,1.64,0,0,0,.41-.62,2.19,2.19,0,0,0,.14-.77,1.53,1.53,0,0,0-.13-.65A1.41,1.41,0,0,0,94.2,36.23Zm8.69-2.72a2,2,0,0,0-.73-.39,3.46,3.46,0,0,0-1-.13H99.3v6.23h.84V36.89h1a3,3,0,0,0,1-.15,2.06,2.06,0,0,0,.73-.4,1.75,1.75,0,0,0,.44-.63,2,2,0,0,0,.15-.79,2.07,2.07,0,0,0-.14-.8A1.52,1.52,0,0,0,102.89,33.51Zm-.37,1.93a1.22,1.22,0,0,1-.29.42,1.21,1.21,0,0,1-.46.26,1.74,1.74,0,0,1-.63.1h-1V33.65h1a1.54,1.54,0,0,1,1.1.34,1.17,1.17,0,0,1,.37.93A1.42,1.42,0,0,1,102.52,35.44ZM108,39.22h3.83v-.68h-3V36.41h2.42v-.66h-2.42V33.67h3V33H108Zm12.9-1.28a.24.24,0,0,0-.14.06,3.75,3.75,0,0,1-.33.26,1.42,1.42,0,0,1-.35.17,1.76,1.76,0,0,1-.41.1,2.53,2.53,0,0,1-.5,0,2.19,2.19,0,0,1-.85-.17,1.91,1.91,0,0,1-.68-.48,2.19,2.19,0,0,1-.46-.77,3.24,3.24,0,0,1,0-2.07,2.21,2.21,0,0,1,.47-.77,2,2,0,0,1,.71-.49,2.27,2.27,0,0,1,.91-.17,2.53,2.53,0,0,1,.5,0,2.8,2.8,0,0,1,.37.1,1.46,1.46,0,0,1,.28.13l.2.13.15.1a.21.21,0,0,0,.12.05.16.16,0,0,0,.11,0l.07-.07.28-.39a2.91,2.91,0,0,0-.89-.58,3,3,0,0,0-1.18-.21,3.26,3.26,0,0,0-1.27.23,2.89,2.89,0,0,0-1,.65,3.11,3.11,0,0,0-.64,1,3.66,3.66,0,0,0-.23,1.3,3.57,3.57,0,0,0,.22,1.29,3.06,3.06,0,0,0,.59,1,2.6,2.6,0,0,0,.94.65,3,3,0,0,0,1.22.23,3.23,3.23,0,0,0,1.31-.24,2.78,2.78,0,0,0,.93-.7L121,38A.17.17,0,0,0,120.89,37.94Zm4.4-4.25h2v5.53h.85V33.69h2V33h-4.88Zm9.39,5.53h.84V33h-.84Zm10.91-5.41a2.88,2.88,0,0,0-1-.66,3.13,3.13,0,0,0-1.25-.23,3.16,3.16,0,0,0-1.25.23,2.88,2.88,0,0,0-1,.66,2.81,2.81,0,0,0-.62,1,3.86,3.86,0,0,0,0,2.57,2.81,2.81,0,0,0,.62,1,2.88,2.88,0,0,0,1,.66,3.35,3.35,0,0,0,1.25.23,3.31,3.31,0,0,0,1.25-.23,2.88,2.88,0,0,0,1-.66,3,3,0,0,0,.63-1,3.86,3.86,0,0,0,0-2.57A3,3,0,0,0,145.59,33.81Zm-.17,3.33a2.16,2.16,0,0,1-.44.77,1.9,1.9,0,0,1-.7.48,2.38,2.38,0,0,1-.91.17,2.46,2.46,0,0,1-.91-.17,1.87,1.87,0,0,1-.69-.48,2.18,2.18,0,0,1-.45-.77,3.65,3.65,0,0,1,0-2.07,2.18,2.18,0,0,1,.45-.77,1.87,1.87,0,0,1,.69-.48,2.27,2.27,0,0,1,.91-.17,2.21,2.21,0,0,1,.91.17,1.9,1.9,0,0,1,.7.48,2.16,2.16,0,0,1,.44.77,3.43,3.43,0,0,1,0,2.07Zm10,.26v.21c0,.07,0,.15,0,.22l-3.6-4.7a.46.46,0,0,0-.13-.12.34.34,0,0,0-.16,0h-.44v6.23h.74V34.59c0-.07,0-.14,0-.22l3.6,4.7a.37.37,0,0,0,.14.12.38.38,0,0,0,.16,0h.43V33h-.74Z"/></g></g></svg>