<?xml version="1.0" encoding="utf-8"?>
<!-- Generator: Adobe Illustrator 27.9.1, SVG Export Plug-In . SVG Version: 6.00 Build 0)  -->
<svg version="1.1" id="Layer_1" xmlns="http://www.w3.org/2000/svg" xmlns:xlink="http://www.w3.org/1999/xlink" x="0px" y="0px"
	 viewBox="0 0 185.5 39.3" style="enable-background:new 0 0 185.5 39.3;" xml:space="preserve">
<style type="text/css">
	.st0{fill:#FFFFFF;}
	.st1{fill:#FFFFFF;stroke:#FFFFFF;stroke-width:0.15;stroke-miterlimit:10;}
	.st2{display:none;}
	.st3{font-family:'Lato-Light';}
	.st4{font-size:27.1901px;}
	.st5{letter-spacing:8;}
	.st6{font-family:'Lato-Regular';}
	.st7{font-size:9.5006px;}
	.st8{letter-spacing:2;}
</style>
<g>
	<path class="st0" d="M17.7,17.3c0.1,0,0.2,0,0.2,0.1l0.6,0.6c-0.4,0.4-0.8,0.8-1.3,1.2c-0.5,0.3-1,0.6-1.6,0.9
		c-0.6,0.2-1.2,0.4-1.9,0.6c-0.7,0.1-1.4,0.2-2.2,0.2c-1.4,0-2.6-0.2-3.7-0.7c-1.1-0.5-2.1-1.1-2.9-2c-0.8-0.9-1.4-1.9-1.9-3.2
		c-0.4-1.2-0.7-2.6-0.7-4.1c0-1.5,0.2-2.8,0.7-4.1c0.5-1.2,1.1-2.3,1.9-3.2c0.8-0.9,1.8-1.6,3-2c1.2-0.5,2.4-0.7,3.8-0.7
		c1.3,0,2.5,0.2,3.5,0.6c1,0.4,2,1,2.8,1.8l-0.4,0.6c-0.1,0.1-0.2,0.2-0.3,0.2c-0.1,0-0.3-0.1-0.5-0.3c-0.2-0.2-0.6-0.4-1-0.7
		c-0.4-0.2-1-0.5-1.6-0.7C13.5,2.1,12.7,2,11.7,2c-1.2,0-2.3,0.2-3.2,0.6C7.5,3,6.7,3.6,6,4.3C5.3,5.1,4.7,6,4.3,7.1
		s-0.6,2.3-0.6,3.7c0,1.4,0.2,2.6,0.6,3.7c0.4,1.1,0.9,2,1.6,2.8c0.7,0.8,1.5,1.3,2.5,1.7c1,0.4,2,0.6,3.1,0.6c0.7,0,1.3,0,1.9-0.1
		c0.5-0.1,1.1-0.2,1.5-0.4c0.5-0.2,0.9-0.4,1.3-0.7c0.4-0.3,0.8-0.6,1.2-0.9c0,0,0.1-0.1,0.1-0.1C17.6,17.3,17.6,17.3,17.7,17.3z"/>
	<path class="st0" d="M45.7,20.5h-1.1c-0.1,0-0.2,0-0.3-0.1s-0.1-0.2-0.2-0.3l-2.3-5.7h-9.6L30,20.2c0,0.1-0.1,0.2-0.2,0.3
		c-0.1,0.1-0.2,0.1-0.3,0.1h-1.1l8-19.5h1.4L45.7,20.5z M41.4,13.4l-4-9.9c-0.1-0.3-0.3-0.7-0.4-1.2C37,2.6,36.9,2.8,36.9,3
		c-0.1,0.2-0.1,0.4-0.2,0.5l-4,9.9H41.4z"/>
	<path class="st0" d="M76.4,1v19.5h-1.2V3.9c0-0.2,0-0.5,0-0.8l-7.7,13.6c-0.1,0.2-0.3,0.4-0.6,0.4h-0.2c-0.2,0-0.4-0.1-0.6-0.4
		L58.3,3.1c0,0.3,0,0.5,0,0.8v16.6h-1.2V1h1c0.1,0,0.2,0,0.3,0c0.1,0,0.1,0.1,0.2,0.2l7.9,13.6c0.1,0.3,0.3,0.5,0.4,0.8
		c0.1-0.1,0.1-0.3,0.2-0.4c0.1-0.1,0.1-0.3,0.2-0.4l7.7-13.6c0.1-0.1,0.1-0.2,0.2-0.2c0.1,0,0.2,0,0.3,0H76.4z"/>
	<path class="st0" d="M101.8,19.4l0,1.2H90V1h11.7v1.2H91.5v7.9h8.6v1.1h-8.6v8.1H101.8z"/>
	<path class="st0" d="M127.1,20.5h-1.2c-0.2,0-0.3,0-0.4-0.1c-0.1-0.1-0.2-0.1-0.3-0.3l-6.3-7.9c-0.1-0.1-0.1-0.2-0.2-0.3
		c-0.1-0.1-0.2-0.1-0.3-0.2c-0.1,0-0.2-0.1-0.3-0.1c-0.1,0-0.3,0-0.5,0H115v8.8h-1.4V1h5c2.2,0,3.9,0.4,5,1.3
		c1.1,0.9,1.7,2.1,1.7,3.8c0,0.7-0.1,1.4-0.4,2c-0.3,0.6-0.6,1.2-1.1,1.6s-1.1,0.8-1.8,1.1c-0.7,0.3-1.5,0.5-2.3,0.6
		c0.2,0.1,0.4,0.3,0.6,0.6L127.1,20.5z M118.4,10.7c0.9,0,1.6-0.1,2.3-0.3c0.7-0.2,1.3-0.5,1.7-0.9c0.5-0.4,0.8-0.9,1.1-1.4
		c0.2-0.5,0.4-1.2,0.4-1.8c0-1.4-0.5-2.4-1.4-3.1c-0.9-0.7-2.2-1-4-1H115v8.5H118.4z"/>
	<path class="st0" d="M155.4,10.8c0,1.5-0.2,2.9-0.7,4.1s-1.1,2.3-1.9,3.1c-0.8,0.9-1.8,1.5-2.9,2c-1.1,0.5-2.4,0.7-3.8,0.7
		s-2.6-0.2-3.8-0.7c-1.1-0.5-2.1-1.1-2.9-2c-0.8-0.9-1.5-1.9-1.9-3.1c-0.5-1.2-0.7-2.6-0.7-4.1c0-1.5,0.2-2.9,0.7-4.1
		c0.5-1.2,1.1-2.3,1.9-3.1c0.8-0.9,1.8-1.5,2.9-2s2.4-0.7,3.8-0.7s2.6,0.2,3.8,0.7c1.1,0.5,2.1,1.1,2.9,2c0.8,0.9,1.5,1.9,1.9,3.2
		S155.4,9.3,155.4,10.8z M153.9,10.8c0-1.4-0.2-2.6-0.6-3.7c-0.4-1.1-0.9-2-1.6-2.8s-1.5-1.3-2.5-1.7c-1-0.4-2-0.6-3.2-0.6
		c-1.2,0-2.2,0.2-3.2,0.6c-1,0.4-1.8,1-2.5,1.7s-1.2,1.7-1.6,2.8c-0.4,1.1-0.6,2.3-0.6,3.7c0,1.4,0.2,2.6,0.6,3.7
		c0.4,1.1,0.9,2,1.6,2.8s1.5,1.3,2.5,1.7c1,0.4,2,0.6,3.2,0.6c1.2,0,2.2-0.2,3.2-0.6c1-0.4,1.8-1,2.5-1.7s1.2-1.7,1.6-2.8
		C153.7,13.4,153.9,12.1,153.9,10.8z"/>
	<path class="st0" d="M183,1v19.5h-0.7c-0.1,0-0.2,0-0.3-0.1c-0.1,0-0.2-0.1-0.2-0.2L169.1,3.3c0,0.3,0,0.5,0,0.8v16.4h-1.2V1h0.7
		c0.1,0,0.2,0,0.3,0c0.1,0,0.1,0.1,0.2,0.2l12.7,16.9c0-0.3,0-0.5,0-0.8V1H183z"/>
</g>
<g>
	<path class="st1" d="M34.2,31.9v6.9h-0.9v-3.1h-3.7v3.1h-0.9v-6.9h0.9V35h3.7v-3.1H34.2z"/>
	<path class="st1" d="M45.4,35.4c0,0.5-0.1,1-0.2,1.4c-0.2,0.4-0.4,0.8-0.7,1.1c-0.3,0.3-0.7,0.6-1.1,0.7c-0.4,0.2-0.9,0.3-1.4,0.3
		c-0.5,0-1-0.1-1.4-0.3c-0.4-0.2-0.8-0.4-1.1-0.7c-0.3-0.3-0.5-0.7-0.7-1.1c-0.2-0.4-0.2-0.9-0.2-1.4c0-0.5,0.1-1,0.2-1.4
		s0.4-0.8,0.7-1.1c0.3-0.3,0.7-0.6,1.1-0.7c0.4-0.2,0.9-0.3,1.4-0.3c0.5,0,1,0.1,1.4,0.3c0.4,0.2,0.8,0.4,1.1,0.7
		c0.3,0.3,0.5,0.7,0.7,1.1S45.4,34.9,45.4,35.4z M44.4,35.4c0-0.4-0.1-0.8-0.2-1.1c-0.1-0.3-0.3-0.6-0.5-0.9
		c-0.2-0.2-0.5-0.4-0.8-0.5c-0.3-0.1-0.6-0.2-1-0.2c-0.4,0-0.7,0.1-1,0.2c-0.3,0.1-0.6,0.3-0.8,0.5c-0.2,0.2-0.4,0.5-0.5,0.9
		c-0.1,0.3-0.2,0.7-0.2,1.1c0,0.4,0.1,0.8,0.2,1.1c0.1,0.3,0.3,0.6,0.5,0.9c0.2,0.2,0.5,0.4,0.8,0.5s0.6,0.2,1,0.2
		c0.4,0,0.7-0.1,1-0.2c0.3-0.1,0.6-0.3,0.8-0.5c0.2-0.2,0.4-0.5,0.5-0.9C44.3,36.2,44.4,35.8,44.4,35.4z"/>
	<path class="st1" d="M56.8,31.9v6.9H56v-5.1c0-0.1,0-0.1,0-0.2c0-0.1,0-0.2,0-0.2l-2.4,4.3c-0.1,0.1-0.2,0.2-0.3,0.2h-0.1
		c-0.2,0-0.3-0.1-0.3-0.2l-2.4-4.3c0,0.2,0,0.3,0,0.5v5.1h-0.8v-6.9h0.7c0.1,0,0.1,0,0.2,0c0,0,0.1,0.1,0.1,0.1l2.4,4.3
		c0,0.1,0.1,0.2,0.1,0.2c0,0.1,0.1,0.2,0.1,0.3c0-0.1,0.1-0.2,0.1-0.3s0.1-0.2,0.1-0.2l2.3-4.2c0-0.1,0.1-0.1,0.1-0.1s0.1,0,0.2,0
		H56.8z"/>
	<path class="st1" d="M65.8,38.1l0,0.8h-4.3v-6.9h4.3v0.8h-3.3V35h2.7v0.7h-2.7v2.4H65.8z"/>
	<path class="st1" d="M76.3,38.8h-0.9v-6.9h0.9V38.8z"/>
	<path class="st1" d="M86.6,31.9v6.9h-0.5c-0.1,0-0.1,0-0.2,0c-0.1,0-0.1-0.1-0.1-0.1l-4-5.2c0,0.1,0,0.2,0,0.2c0,0.1,0,0.1,0,0.2
		v4.9H81v-6.9h0.5c0,0,0.1,0,0.1,0c0,0,0.1,0,0.1,0c0,0,0,0,0.1,0s0,0,0.1,0.1l4,5.2c0-0.1,0-0.2,0-0.2c0-0.1,0-0.2,0-0.2v-4.9H86.6
		z"/>
	<path class="st1" d="M94.8,33c0,0-0.1,0.1-0.1,0.1c0,0-0.1,0-0.1,0c-0.1,0-0.1,0-0.2-0.1c-0.1-0.1-0.2-0.1-0.3-0.2
		c-0.1-0.1-0.2-0.1-0.4-0.2c-0.2-0.1-0.3-0.1-0.6-0.1c-0.2,0-0.4,0-0.6,0.1c-0.2,0.1-0.3,0.1-0.4,0.2S92,33.1,92,33.3
		c-0.1,0.1-0.1,0.3-0.1,0.4c0,0.2,0,0.4,0.1,0.5s0.2,0.2,0.4,0.3c0.2,0.1,0.3,0.2,0.5,0.2c0.2,0.1,0.4,0.1,0.6,0.2
		c0.2,0.1,0.4,0.1,0.6,0.2c0.2,0.1,0.4,0.2,0.5,0.3c0.2,0.1,0.3,0.3,0.4,0.5c0.1,0.2,0.1,0.4,0.1,0.7c0,0.3-0.1,0.6-0.2,0.9
		c-0.1,0.3-0.3,0.5-0.5,0.7c-0.2,0.2-0.4,0.4-0.7,0.5c-0.3,0.1-0.6,0.2-1,0.2c-0.5,0-0.9-0.1-1.2-0.2c-0.4-0.2-0.7-0.4-0.9-0.7
		l0.3-0.4c0,0,0.1-0.1,0.1-0.1c0,0,0.1,0,0.1,0c0,0,0.1,0,0.1,0.1c0.1,0,0.1,0.1,0.2,0.1c0.1,0.1,0.1,0.1,0.2,0.2
		c0.1,0.1,0.2,0.1,0.3,0.2c0.1,0.1,0.2,0.1,0.4,0.1c0.1,0,0.3,0.1,0.5,0.1c0.2,0,0.4,0,0.6-0.1c0.2-0.1,0.3-0.1,0.4-0.3
		c0.1-0.1,0.2-0.2,0.3-0.4c0.1-0.2,0.1-0.3,0.1-0.5c0-0.2,0-0.4-0.1-0.5c-0.1-0.1-0.2-0.2-0.4-0.3c-0.2-0.1-0.3-0.2-0.5-0.2
		c-0.2-0.1-0.4-0.1-0.6-0.2c-0.2-0.1-0.4-0.1-0.6-0.2c-0.2-0.1-0.4-0.2-0.5-0.3c-0.2-0.1-0.3-0.3-0.4-0.5c-0.1-0.2-0.1-0.5-0.1-0.8
		c0-0.2,0-0.5,0.1-0.7c0.1-0.2,0.2-0.4,0.4-0.6c0.2-0.2,0.4-0.3,0.7-0.4c0.3-0.1,0.6-0.2,0.9-0.2c0.4,0,0.7,0.1,1.1,0.2
		c0.3,0.1,0.6,0.3,0.8,0.5L94.8,33z"/>
	<path class="st1" d="M101.5,31.9c0.4,0,0.8,0.1,1.1,0.2c0.3,0.1,0.6,0.2,0.8,0.4c0.2,0.2,0.4,0.4,0.5,0.7c0.1,0.3,0.2,0.6,0.2,0.9
		c0,0.3-0.1,0.6-0.2,0.9c-0.1,0.3-0.3,0.5-0.5,0.7c-0.2,0.2-0.5,0.3-0.8,0.5c-0.3,0.1-0.7,0.2-1.1,0.2h-1.1v2.6h-0.9v-6.9H101.5z
		 M101.5,35.5c0.3,0,0.5,0,0.7-0.1c0.2-0.1,0.4-0.2,0.5-0.3c0.1-0.1,0.2-0.3,0.3-0.5c0.1-0.2,0.1-0.4,0.1-0.6c0-0.4-0.1-0.8-0.4-1
		c-0.3-0.2-0.7-0.4-1.2-0.4h-1.1v2.8H101.5z"/>
	<path class="st1" d="M112.4,38.1l0,0.8h-4.3v-6.9h4.3v0.8h-3.3V35h2.7v0.7h-2.7v2.4H112.4z"/>
	<path class="st1" d="M121.3,37.4c0.1,0,0.1,0,0.1,0.1l0.4,0.4c-0.3,0.3-0.6,0.6-1,0.8c-0.4,0.2-0.9,0.3-1.5,0.3
		c-0.5,0-0.9-0.1-1.4-0.3c-0.4-0.2-0.8-0.4-1-0.7c-0.3-0.3-0.5-0.7-0.7-1.1c-0.2-0.4-0.2-0.9-0.2-1.4c0-0.5,0.1-1,0.2-1.4
		c0.2-0.4,0.4-0.8,0.7-1.1c0.3-0.3,0.7-0.6,1.1-0.7c0.4-0.2,0.9-0.3,1.4-0.3c0.5,0,0.9,0.1,1.3,0.2c0.4,0.2,0.7,0.4,1,0.6l-0.3,0.4
		c0,0,0,0.1-0.1,0.1c0,0-0.1,0-0.1,0c-0.1,0-0.1,0-0.2-0.1c-0.1-0.1-0.2-0.1-0.3-0.2s-0.3-0.1-0.5-0.2c-0.2-0.1-0.5-0.1-0.7-0.1
		c-0.4,0-0.7,0.1-1,0.2c-0.3,0.1-0.6,0.3-0.8,0.5c-0.2,0.2-0.4,0.5-0.5,0.9c-0.1,0.3-0.2,0.7-0.2,1.1c0,0.4,0.1,0.8,0.2,1.2
		s0.3,0.6,0.5,0.9c0.2,0.2,0.5,0.4,0.8,0.5c0.3,0.1,0.6,0.2,0.9,0.2c0.2,0,0.4,0,0.6,0c0.2,0,0.3-0.1,0.5-0.1
		c0.1-0.1,0.3-0.1,0.4-0.2c0.1-0.1,0.2-0.2,0.4-0.3C121.2,37.4,121.2,37.4,121.3,37.4z"/>
	<path class="st1" d="M130.7,32.7h-2.2v6.1h-0.9v-6.1h-2.2v-0.8h5.4V32.7z"/>
	<path class="st1" d="M135.6,38.8h-0.9v-6.9h0.9V38.8z"/>
	<path class="st1" d="M146.7,35.4c0,0.5-0.1,1-0.2,1.4c-0.2,0.4-0.4,0.8-0.7,1.1c-0.3,0.3-0.7,0.6-1.1,0.7c-0.4,0.2-0.9,0.3-1.4,0.3
		s-1-0.1-1.4-0.3c-0.4-0.2-0.8-0.4-1.1-0.7c-0.3-0.3-0.5-0.7-0.7-1.1c-0.2-0.4-0.2-0.9-0.2-1.4c0-0.5,0.1-1,0.2-1.4s0.4-0.8,0.7-1.1
		c0.3-0.3,0.7-0.6,1.1-0.7c0.4-0.2,0.9-0.3,1.4-0.3s1,0.1,1.4,0.3c0.4,0.2,0.8,0.4,1.1,0.7c0.3,0.3,0.5,0.7,0.7,1.1
		S146.7,34.9,146.7,35.4z M145.8,35.4c0-0.4-0.1-0.8-0.2-1.1c-0.1-0.3-0.3-0.6-0.5-0.9c-0.2-0.2-0.5-0.4-0.8-0.5
		c-0.3-0.1-0.6-0.2-1-0.2c-0.4,0-0.7,0.1-1,0.2c-0.3,0.1-0.6,0.3-0.8,0.5c-0.2,0.2-0.4,0.5-0.5,0.9c-0.1,0.3-0.2,0.7-0.2,1.1
		c0,0.4,0.1,0.8,0.2,1.1c0.1,0.3,0.3,0.6,0.5,0.9c0.2,0.2,0.5,0.4,0.8,0.5c0.3,0.1,0.6,0.2,1,0.2c0.4,0,0.7-0.1,1-0.2
		c0.3-0.1,0.6-0.3,0.8-0.5c0.2-0.2,0.4-0.5,0.5-0.9C145.7,36.2,145.8,35.8,145.8,35.4z"/>
	<path class="st1" d="M156.6,31.9v6.9h-0.5c-0.1,0-0.1,0-0.2,0c-0.1,0-0.1-0.1-0.1-0.1l-4-5.2c0,0.1,0,0.2,0,0.2c0,0.1,0,0.1,0,0.2
		v4.9H151v-6.9h0.5c0,0,0.1,0,0.1,0s0.1,0,0.1,0c0,0,0,0,0.1,0c0,0,0,0,0.1,0.1l4,5.2c0-0.1,0-0.2,0-0.2c0-0.1,0-0.2,0-0.2v-4.9
		H156.6z"/>
</g>
<text transform="matrix(1 0 0 1 0.3523 20.1323)" class="st2 st3 st4 st5">CAMERON</text>
<text transform="matrix(1 0 0 1 30.2219 38.1602)" class="st2 st6 st7 st8">HOME INSPECTION</text>
</svg>
