<?xml version="1.0" encoding="utf-8"?>
<!-- Generator: Adobe Illustrator 15.1.0, SVG Export Plug-In . SVG Version: 6.00 Build 0)  -->
<!DOCTYPE svg PUBLIC "-//W3C//DTD SVG 1.1//EN" "http://www.w3.org/Graphics/SVG/1.1/DTD/svg11.dtd">
<svg version="1.1" id="Layer_1" xmlns="http://www.w3.org/2000/svg" xmlns:xlink="http://www.w3.org/1999/xlink" x="0px" y="0px"
	 width="28.861px" height="49.479px" viewBox="0 0 28.861 49.479" enable-background="new 0 0 28.861 49.479" xml:space="preserve">
<title>mobile-phone</title>
<path fill="#FFFFFF" d="M26.799,38.654c0,0.285-0.229,0.518-0.517,0.518H2.576c-0.284,0-0.516-0.23-0.516-0.518V8.762
	c0-0.285,0.23-0.516,0.516-0.516h23.707c0.285,0,0.517,0.229,0.517,0.516v0.433l0.565,0.136c0.517,0.124,1.031,0.268,1.496,0.433
	V6.185c0-3.416-2.77-6.185-6.186-6.185H6.183C2.767,0.001,0,2.769,0,6.185v37.107c0,3.416,2.768,6.186,6.184,6.186h16.492
	c3.416,0,6.186-2.77,6.186-6.186V8.595H26.8L26.799,38.654L26.799,38.654z M11.853,4.125h5.154c0.283,0,0.514,0.229,0.514,0.516
	s-0.229,0.515-0.514,0.515h-5.154c-0.283,0-0.516-0.229-0.516-0.515S11.57,4.125,11.853,4.125z M16.926,44.447
	c-0.228,0.916-0.939,1.633-1.855,1.855c-1.387,0.322-2.771-0.541-3.092-1.928c-0.09-0.383-0.09-0.781,0-1.164
	c0.228-0.916,0.939-1.629,1.855-1.855c1.385-0.32,2.77,0.543,3.092,1.928C17.013,43.667,17.013,44.064,16.926,44.447z"/>
<g>
	<path fill="#FFFFFF" d="M19.252,32.947c-1.793,0.781-3.327,1.014-5.497,1.014c-5.179,0-9.634-3.616-9.634-9.257
		c0-5.959,4.484-10.936,11.313-10.936c5.236,0,9.373,3.501,9.373,8.679c0,3.963-2.545,6.596-5.785,6.596
		c-1.332,0-2.431-0.665-2.604-2.17h-0.059c-0.983,1.418-2.287,2.17-3.935,2.17c-1.997,0-3.5-1.447-3.5-3.905
		c0-3.5,2.748-6.596,7.03-6.596c1.418,0,2.979,0.317,3.704,0.723l-0.812,5.38c-0.26,1.562-0.086,2.314,0.694,2.343
		c1.274,0.059,2.923-1.417,2.923-4.57c0-3.79-2.661-6.712-7.32-6.712c-4.657,0-8.592,3.27-8.592,8.622
		c0,4.831,3.24,7.695,7.811,7.695c1.534,0,3.213-0.318,4.369-0.868L19.252,32.947z M16.532,21.087
		c-0.26-0.058-0.578-0.116-0.954-0.116c-2.083,0-3.559,1.793-3.559,3.761c0,1.127,0.521,1.852,1.562,1.852
		c1.129,0,2.343-1.331,2.604-3.095L16.532,21.087z"/>
</g>
</svg>
