<?xml version="1.0" encoding="utf-8"?>
<!-- Generator: Adobe Illustrator 15.1.0, SVG Export Plug-In . SVG Version: 6.00 Build 0)  -->
<!DOCTYPE svg PUBLIC "-//W3C//DTD SVG 1.1//EN" "http://www.w3.org/Graphics/SVG/1.1/DTD/svg11.dtd">
<svg version="1.1" id="Layer_1" xmlns="http://www.w3.org/2000/svg" xmlns:xlink="http://www.w3.org/1999/xlink" x="0px" y="0px"
	 width="79.625px" height="66.871px" viewBox="0 0 79.625 66.871" enable-background="new 0 0 79.625 66.871" xml:space="preserve">
<path opacity="0.25" fill="#2FFF00" enable-background="new    " d="M16.24,13.45C5.41,23.717-0.004,34.848-0.003,46.839
	c-0.13,4.972,1.381,9.847,4.3,13.871c2.86,3.931,7.451,6.229,12.311,6.16c8.529,0.101,15.524-6.731,15.625-15.263
	c0.002-0.18,0.001-0.358-0.003-0.539c0-9.5-4.679-14.245-14.036-14.239c-2.055,0-3.078-0.688-3.078-2.05
	c0-9.34,7.712-18.11,23.136-26.311l-2.94-8.49c-6.968,3.554-13.389,8.091-19.068,13.47L16.24,13.45L16.24,13.45z M57.707,13.33
	c-10.902,10.1-16.355,21.1-16.354,33c-0.162,5.033,1.304,9.984,4.178,14.121c2.787,4.104,7.462,6.516,12.422,6.41
	c8.531,0.104,15.535-6.728,15.641-15.258c0.004-0.183,0.002-0.362-0.002-0.543c0-5.312-0.982-8.722-2.961-10.261
	c-0.904-0.68-3.562-1.801-7.986-3.34c-3.461-1.181-5.184-2.431-5.184-3.71c0-8.64,7.393-17.07,22.176-25.29l-2.961-8.48
	C69.785,3.563,63.404,8.053,57.707,13.33L57.707,13.33z"/>
</svg>
