<svg xmlns="http://www.w3.org/2000/svg" width="79.624" height="66.87" viewBox="0 0 79.624 66.87">
  <defs>
    <style>
      .cls-1 {
        fill: #2fff00;
        fill-rule: evenodd;
        opacity: 0.33;
      }
    </style>
  </defs>
  <path id="quote" class="cls-1" d="M295.928,1200.39q-16.245,15.4-16.243,33.39a22.618,22.618,0,0,0,4.3,13.87,14.964,14.964,0,0,0,12.311,6.16,15.444,15.444,0,0,0,15.622-15.8q0-14.25-14.036-14.24c-2.055,0-3.078-.69-3.078-2.05q0-14.01,23.136-26.31L315,1186.92a81.73,81.73,0,0,0-19.068,13.47h0Zm41.467-.12q-16.356,15.15-16.354,33a23.434,23.434,0,0,0,4.177,14.12,14.64,14.64,0,0,0,12.422,6.41,15.451,15.451,0,0,0,15.639-15.8c0-5.31-.982-8.72-2.96-10.26-0.905-.68-3.563-1.8-7.987-3.34-3.462-1.18-5.183-2.43-5.183-3.71q0-12.96,22.174-25.29l-2.96-8.48a86.932,86.932,0,0,0-18.968,13.35h0Z" transform="translate(-279.688 -1186.94)"/>
</svg>
